<svg width="34" height="27" viewBox="0 0 34 27" fill="none" xmlns="http://www.w3.org/2000/svg">
<ellipse cx="16.5511" cy="23.4166" rx="16.5511" ry="3.48445" fill="#E0E0E0"/>
<path d="M28.0187 4.20214H24.2451C23.7613 4.20214 23.3012 3.98339 22.9728 3.59862L20.5049 0.702147C20.1765 0.317382 19.7163 0.0986328 19.2326 0.0986328H14.2378C13.7541 0.0986328 13.2939 0.317382 12.9655 0.702147L10.4976 3.59862C10.1692 3.98339 9.70905 4.20214 9.22531 4.20214H5.44972C4.49402 4.20214 3.71924 5.04198 3.71924 6.07714V21.5048C3.71924 22.7685 4.89124 23.6513 6.41525 23.6513H27.0532C28.5791 23.6513 29.7492 22.7666 29.7492 21.5048V6.07714C29.7492 5.04198 28.9744 4.20214 28.0187 4.20214ZM15.2584 0.918943H18.212C18.5188 0.918943 18.7705 1.16894 18.7705 1.47363C18.7705 1.77832 18.5188 2.02832 18.212 2.02832H15.2584C14.9516 2.02832 14.6999 1.77832 14.6999 1.47363C14.6999 1.16894 14.9516 0.918943 15.2584 0.918943ZM16.7352 22.4755C11.3412 22.4755 6.96782 18.1318 6.96782 12.7744C6.96782 12.417 6.98945 12.0634 7.02681 11.7158C7.55776 6.85643 11.7011 3.07324 16.7352 3.07324C21.7693 3.07324 25.9126 6.85643 26.4436 11.7158C26.4809 12.0634 26.5026 12.415 26.5026 12.7744C26.5026 18.1318 22.1292 22.4755 16.7352 22.4755Z" fill="#DF1B74"/>
<path d="M18.3451 22.5689C23.7296 21.6864 27.3744 16.6356 26.4859 11.2875C25.5974 5.93949 20.5121 2.31944 15.1275 3.20192C9.74297 4.08441 6.09821 9.13525 6.98672 14.4833C7.87523 19.8313 12.9605 23.4514 18.3451 22.5689Z" fill="#0070BA"/>
<path d="M23.498 14.8897C24.3941 11.1797 22.0925 7.45061 18.3571 6.5606C14.6218 5.67058 10.8672 7.95666 9.97115 11.6667C9.07506 15.3767 11.3767 19.1058 15.1121 19.9958C18.8474 20.8858 22.602 18.5997 23.498 14.8897Z" fill="white"/>
<path d="M16.3413 7.86417C16.4651 8.19816 16.0896 8.64347 15.5036 8.85831C14.9156 9.07316 14.3394 8.97745 14.2155 8.64347C14.0916 8.30949 14.4672 7.86417 15.0532 7.64933C15.6412 7.43449 16.2174 7.53019 16.3413 7.86417Z" fill="white"/>
<path d="M16.7348 18.7744C13.6828 18.7744 11.2012 16.3096 11.2012 13.2783C11.2012 10.2471 13.6828 7.78223 16.7348 7.78223C19.7867 7.78223 22.2684 10.2471 22.2684 13.2783C22.2684 16.3096 19.7867 18.7744 16.7348 18.7744ZM16.7348 9.07715C14.4026 9.07715 12.5049 10.9619 12.5049 13.2783C12.5049 15.5947 14.4026 17.4795 16.7348 17.4795C19.067 17.4795 20.9646 15.5947 20.9646 13.2783C20.9646 10.9619 19.067 9.07715 16.7348 9.07715Z" fill="#EDB2CD"/>
<path d="M16.735 9.75684C15.9897 9.75684 15.2995 9.98535 14.7292 10.374H15.3762L15.9976 11.4424L15.3762 12.5107H14.1334L13.6103 11.6103C13.3409 12.1064 13.1875 12.6748 13.1875 13.2783C13.1875 15.2236 14.7744 16.7998 16.733 16.7998C18.6916 16.7998 20.2785 15.2236 20.2785 13.2783C20.2785 11.333 18.6916 9.75684 16.733 9.75684H16.735ZM16.1608 14.1416L15.6947 13.3408L16.1608 12.54H17.0929L17.5589 13.3408L17.0929 14.1416H16.1608ZM18.3888 15.2588H17.7851L17.4822 14.7392L17.7851 14.2197H18.3888L18.6916 14.7392L18.3888 15.2588Z" fill="#0070BA"/>
</svg>
