<svg width="34" height="34" viewBox="0 0 34 34" fill="none" xmlns="http://www.w3.org/2000/svg">
<ellipse cx="17" cy="32.5921" rx="17" ry="1.30124" fill="#E0E0E0"/>
<g clip-path="url(#clip0_594_14030)">
<path d="M27.2961 7.58313C25.8693 7.62168 24.4426 7.65323 23.0159 7.67786C22.8852 8.4298 22.1798 8.85754 21.5481 8.85755C20.927 8.85755 20.237 8.44394 20.0881 7.71888C17.944 7.74161 15.7998 7.749 13.6555 7.74036C13.4977 8.4536 12.8125 8.85751 12.1985 8.85755C11.5774 8.85755 10.8874 8.44393 10.7385 7.71888C9.29004 7.70344 7.84152 7.67926 6.39282 7.64954C5.39006 14.772 4.33415 21.8884 3.23364 28.9991C12.4064 29.2402 21.5767 29.2053 30.7473 28.9015C29.5465 21.8015 28.3961 14.6958 27.2961 7.58313ZM21.929 7.69544C21.8587 7.77215 21.7607 7.82834 21.6467 7.84876L21.5481 7.85755C21.3989 7.85755 21.267 7.79755 21.177 7.7052C21.1542 7.7055 21.1314 7.70589 21.1086 7.70618C21.1439 7.77385 21.1879 7.83006 21.2346 7.87122C21.3089 7.93653 21.3918 7.97334 21.4709 7.98743L21.5481 7.99427L21.6262 7.98743C21.7057 7.97316 21.7879 7.93611 21.8616 7.87122C21.9109 7.8278 21.9592 7.76815 21.9954 7.69446C21.9732 7.69479 21.9511 7.69511 21.929 7.69544ZM11.7737 7.72864C11.807 7.78619 11.8438 7.83603 11.885 7.8722C11.9586 7.93681 12.0411 7.97323 12.1204 7.98743L12.1985 7.99427L12.2766 7.98743C12.3564 7.97317 12.4388 7.93652 12.512 7.8722C12.5518 7.83716 12.5885 7.7892 12.6213 7.73352C12.5953 7.73336 12.5693 7.7337 12.5432 7.73352C12.4769 7.79106 12.392 7.83175 12.2971 7.84876L12.1985 7.85755C12.0615 7.85755 11.9379 7.80817 11.8489 7.72864C11.8238 7.72844 11.7987 7.72885 11.7737 7.72864Z" fill="#EDEDED" stroke="#0070BA" stroke-width="2"/>
<path d="M12.4236 7.81644C12.3567 7.84048 12.2841 7.85457 12.2068 7.85457C12.155 7.85457 12.106 7.84628 12.0579 7.83551C12.0579 7.8297 12.0579 7.82473 12.0579 7.81893V7.76588C12.0711 6.2258 12.515 4.55227 13.2463 3.28987C14.152 1.72575 15.4035 0.895199 16.8671 0.889397H16.8831C18.3419 0.889397 19.5963 1.71083 20.5114 3.26583C21.2502 4.52243 21.7045 6.18933 21.728 7.72609C21.728 7.76173 21.728 7.79738 21.728 7.83302C21.6762 7.84628 21.6215 7.85623 21.564 7.85623C21.4934 7.85623 21.4265 7.84462 21.3633 7.82473C21.3633 7.79406 21.3633 7.76339 21.3633 7.73189C21.3237 5.12254 19.8724 1.26157 16.884 1.26157H16.8699C13.8693 1.274 12.4434 5.15238 12.4236 7.76919C12.4236 7.78743 12.4236 7.80318 12.4236 7.8181V7.81644Z" fill="#D9357F" stroke="#D9357F"/>
<path d="M28.0358 26.9356H8.49756L26.4455 25.9511L25.0823 9.80578L28.0358 26.9356Z" fill="#D9357F"/>
</g>
<defs>
<clipPath id="clip0_594_14030">
<rect width="31.8064" height="29.9279" fill="white" transform="matrix(-1 0 0 1 31.9231 0.231258)"/>
</clipPath>
</defs>
</svg>
