<svg width="132" height="106" viewBox="0 0 132 106" fill="none" xmlns="http://www.w3.org/2000/svg">
<ellipse cx="65.2807" cy="92.5015" rx="47.4657" ry="8.63013" fill="#E0E0E0"/>
<path d="M104.799 37.41L66.3867 23.5308C66.1407 23.4425 65.8595 23.4425 65.6135 23.5308L27.2009 37.41C26.744 37.569 26.4453 38.0104 26.4453 38.4872C26.4453 38.9639 26.744 39.4054 27.2009 39.5643L65.6311 53.4435C65.7541 53.4965 65.8771 53.5142 66.0177 53.5142C66.1582 53.5142 66.2812 53.4965 66.4042 53.4435L104.817 39.5643C105.274 39.4054 105.572 38.9816 105.572 38.4872C105.572 37.9928 105.274 37.569 104.817 37.41H104.799Z" fill="#BDBDBD"/>
<path d="M66.3867 51.3072L27.9565 37.4103C27.6051 37.2867 27.2185 37.3396 26.9198 37.5515C26.621 37.7634 26.4453 38.1166 26.4453 38.4874V87.9476C26.4453 88.4067 26.7089 88.8128 27.1306 88.9894L65.5608 105.358C65.7014 105.411 65.8595 105.447 66.0001 105.447C66.211 105.447 66.4394 105.376 66.6327 105.252C66.949 105.041 67.1423 104.687 67.1423 104.299V52.3666C67.1423 51.8899 66.8436 51.4661 66.3867 51.2895V51.3072Z" fill="#BDBDBD"/>
<path d="M105.08 37.5515C104.782 37.3396 104.395 37.2867 104.044 37.4103L65.6135 51.2895C65.1566 51.4484 64.8579 51.8722 64.8579 52.3666V104.299C64.8579 104.687 65.0512 105.041 65.3675 105.252C65.5608 105.376 65.7717 105.429 65.9825 105.429C66.1407 105.429 66.2988 105.394 66.4394 105.323L104.852 88.0006C105.256 87.8063 105.52 87.4002 105.52 86.9587V38.4874C105.52 38.1166 105.344 37.7634 105.045 37.5515H105.08Z" fill="#BDBDBD"/>
<path d="M77.4568 27.5219L39.7119 42.8137V61.7608C39.7119 62.2905 40.0458 62.785 40.5378 62.9615L51.1865 67.0229C51.3271 67.0759 51.4852 67.1112 51.6434 67.1112C51.9069 67.1112 52.153 67.0405 52.3814 66.8816C52.7328 66.6344 52.9437 66.2459 52.9437 65.8221V47.7226L92.4985 32.9605L77.4568 27.5219Z" fill="#F5F5F5"/>
<path d="M72.2909 94.3928C71.8516 94.3928 71.4474 94.1456 71.2541 93.7218C70.9905 93.1567 71.2541 92.4681 71.8164 92.2209L86.1904 85.705C86.7703 85.4402 87.438 85.705 87.684 86.2701C87.9476 86.8528 87.684 87.5238 87.1217 87.771L72.7477 94.2869C72.5896 94.3575 72.4314 94.3928 72.2733 94.3928H72.2909Z" fill="#F5F5F5"/>
<path d="M71.6754 84.5923C71.4294 84.5923 71.1659 84.504 70.955 84.3274C70.4805 83.9213 70.4103 83.215 70.7968 82.7206L73.9774 78.8358C74.3464 78.3767 75.0141 78.2884 75.5062 78.6239L78.0365 80.4073C78.5461 80.7605 78.6691 81.4845 78.3177 81.9966C77.9487 82.5087 77.2458 82.6323 76.7362 82.2791L75.0669 81.096L72.5541 84.1508C72.3256 84.4157 72.0093 84.557 71.6754 84.557V84.5923Z" fill="#F5F5F5"/>
<path d="M74.8561 93.0681C74.2235 93.0681 73.7139 92.556 73.7139 91.938V79.5774C73.7139 78.9417 74.2235 78.4473 74.8561 78.4473C75.4886 78.4473 75.9982 78.9594 75.9982 79.5774V91.938C75.9982 92.5737 75.4886 93.0681 74.8561 93.0681Z" fill="#F5F5F5"/>
<path d="M80.2509 80.8843C80.0049 80.8843 79.7413 80.796 79.5305 80.6195C79.0385 80.2133 78.9857 79.507 79.3723 79.0126L82.5529 75.1455C82.9219 74.6864 83.5896 74.5981 84.0817 74.9336L86.612 76.717C87.1216 77.0702 87.2446 77.7942 86.8932 78.3063C86.5418 78.8183 85.8213 78.9419 85.3117 78.5888L83.6424 77.4057L81.1295 80.4605C80.9011 80.7254 80.5848 80.8667 80.2509 80.8667V80.8843Z" fill="#F5F5F5"/>
<path d="M83.4313 89.36C82.7987 89.36 82.3066 88.8479 82.3066 88.2123V75.8516C82.3066 75.2159 82.8162 74.7039 83.4313 74.7039C84.0463 74.7039 84.5734 75.2159 84.5734 75.8516V88.2123C84.5734 88.8479 84.0638 89.36 83.4313 89.36Z" fill="#F5F5F5"/>
<path d="M51.8015 47.2459L40.8365 43.2905L39.7646 42.902C39.7295 43.0256 39.6943 43.1492 39.6943 43.2905V61.7608C39.6943 62.2905 40.0282 62.7849 40.5202 62.9615L51.1689 67.0229C51.3095 67.0758 51.4676 67.1111 51.6258 67.1111C51.8894 67.1111 52.1354 67.0405 52.3638 66.8816C52.7153 66.6344 52.9261 66.2459 52.9261 65.8221V47.652L51.7839 47.2459H51.8015Z" fill="#F5F5F5"/>
<path d="M8.88828 64.0068H2.45069C1.39246 64.0068 0.554688 64.8667 0.554688 65.9028C0.554688 66.939 1.4145 67.7988 2.45069 67.7988H8.88828C9.94652 67.7988 10.7843 66.939 10.7843 65.9028C10.7843 64.8667 9.92447 64.0068 8.88828 64.0068Z" fill="#BDBDBD"/>
<path d="M129.549 64.0068H123.111C122.075 64.0068 121.215 64.8667 121.215 65.9028C121.215 66.939 122.075 67.7988 123.111 67.7988H129.549C130.607 67.7988 131.445 66.939 131.445 65.9028C131.445 64.8667 130.607 64.0068 129.549 64.0068Z" fill="#BDBDBD"/>
<path d="M66.0108 0.446655C64.9525 0.446655 64.1147 1.30647 64.1147 2.34266V8.78025C64.1147 9.83848 64.9746 10.6763 66.0108 10.6763C67.0469 10.6763 67.9068 9.81644 67.9068 8.78025V2.34266C67.9068 1.28442 67.0469 0.446655 66.0108 0.446655Z" fill="#BDBDBD"/>
<path d="M22.4027 19.627C21.6532 18.8774 20.4626 18.8774 19.7131 19.627C18.9635 20.3766 18.9635 21.5671 19.7131 22.3167L24.2767 26.8803C24.6515 27.2551 25.1365 27.4315 25.6215 27.4315C26.1066 27.4315 26.5916 27.2551 26.9664 26.8803C27.716 26.1307 27.716 24.9402 26.9664 24.1906L22.4027 19.627Z" fill="#BDBDBD"/>
<path d="M109.597 19.627L105.033 24.1906C104.284 24.9402 104.284 26.1307 105.033 26.8803C105.408 27.2551 105.893 27.4315 106.378 27.4315C106.863 27.4315 107.348 27.2551 107.723 26.8803L112.287 22.3167C113.036 21.5671 113.036 20.3766 112.287 19.627C111.537 18.8774 110.347 18.8774 109.597 19.627Z" fill="#BDBDBD"/>
</svg>
