<svg width="35" height="32" viewBox="0 0 35 32" fill="none" xmlns="http://www.w3.org/2000/svg">
<path d="M17.5 1C9.79406 1 3.54712 7.25463 3.54712 14.9701C3.54712 22.6856 9.79406 28.9402 17.5 28.9402C25.206 28.9402 31.453 22.6856 31.453 14.9701C31.453 7.25463 25.206 1 17.5 1ZM26.3566 23.8376C25.206 24.9896 23.8663 25.8943 22.375 26.5258C20.8317 27.1793 19.1917 27.5108 17.5 27.5108C15.8083 27.5108 14.1684 27.1793 12.6251 26.5258C11.1338 25.8943 9.79406 24.9899 8.64345 23.8376C7.49284 22.6856 6.58931 21.3442 5.9586 19.8511C5.30583 18.3059 4.97478 16.6639 4.97478 14.9701C4.97478 13.2763 5.30583 11.6343 5.9586 10.0891C6.58931 8.59602 7.49255 7.25463 8.64345 6.10261C9.79406 4.95058 11.1338 4.04594 12.6251 3.41445C14.1684 2.76088 15.8083 2.42942 17.5 2.42942C19.1917 2.42942 20.8317 2.76088 22.375 3.41445C23.8663 4.04594 25.206 4.95029 26.3566 6.10261C27.5072 7.25463 28.4108 8.59602 29.0415 10.0891C29.6943 11.6343 30.0253 13.2763 30.0253 14.9701C30.0253 16.6639 29.6943 18.3059 29.0415 19.8511C28.4108 21.3442 27.5075 22.6856 26.3566 23.8376Z" fill="#0070BA"/>
<path d="M26.3566 23.8376C25.206 24.9896 23.8663 25.8943 22.375 26.5258C20.8317 27.1793 19.1917 27.5108 17.5 27.5108C15.8083 27.5108 14.1684 27.1793 12.6251 26.5258C11.1338 25.8943 9.79406 24.9899 8.64345 23.8376C7.49284 22.6856 6.58931 21.3442 5.9586 19.8511C5.30583 18.3059 4.97478 16.6639 4.97478 14.9701C4.97478 13.2763 5.30583 11.6343 5.9586 10.0891C6.58931 8.59602 7.49255 7.25463 8.64345 6.10261C9.79406 4.95058 11.1338 4.04594 12.6251 3.41445C14.1684 2.76088 15.8083 2.42942 17.5 2.42942C19.1917 2.42942 20.8317 2.76088 22.375 3.41445C23.8663 4.04594 25.206 4.95029 26.3566 6.10261C27.5072 7.25463 28.4108 8.59602 29.0415 10.0891C29.6943 11.6343 30.0253 13.2763 30.0253 14.9701C30.0253 16.6639 29.6943 18.3059 29.0415 19.8511C28.4108 21.3442 27.5075 22.6856 26.3566 23.8376Z" fill="#EDEDED"/>
<path d="M17.5 1C9.79406 1 3.54712 7.25463 3.54712 14.9701C3.54712 22.6856 9.79406 28.9402 17.5 28.9402C25.206 28.9402 31.453 22.6856 31.453 14.9701C31.453 7.25463 25.206 1 17.5 1ZM26.3566 23.8376C25.206 24.9896 23.8663 25.8943 22.375 26.5258C20.8317 27.1793 19.1917 27.5108 17.5 27.5108C15.8083 27.5108 14.1684 27.1793 12.6251 26.5258C11.1338 25.8943 9.79406 24.9899 8.64345 23.8376C7.49284 22.6856 6.58931 21.3442 5.9586 19.8511C5.30583 18.3059 4.97478 16.6639 4.97478 14.9701C4.97478 13.2763 5.30583 11.6343 5.9586 10.0891C6.58931 8.59602 7.49255 7.25463 8.64345 6.10261C9.79406 4.95058 11.1338 4.04594 12.6251 3.41445C14.1684 2.76088 15.8083 2.42942 17.5 2.42942C19.1917 2.42942 20.8317 2.76088 22.375 3.41445C23.8663 4.04594 25.206 4.95029 26.3566 6.10261C27.5072 7.25463 28.4108 8.59602 29.0415 10.0891C29.6943 11.6343 30.0253 13.2763 30.0253 14.9701C30.0253 16.6639 29.6943 18.3059 29.0415 19.8511C28.4108 21.3442 27.5075 22.6856 26.3566 23.8376Z" stroke="#0070BA"/>
<path d="M26.3566 23.8376C25.206 24.9896 23.8663 25.8943 22.375 26.5258C20.8317 27.1793 19.1917 27.5108 17.5 27.5108C15.8083 27.5108 14.1684 27.1793 12.6251 26.5258C11.1338 25.8943 9.79406 24.9899 8.64345 23.8376C7.49284 22.6856 6.58931 21.3442 5.9586 19.8511C5.30583 18.3059 4.97478 16.6639 4.97478 14.9701C4.97478 13.2763 5.30583 11.6343 5.9586 10.0891C6.58931 8.59602 7.49255 7.25463 8.64345 6.10261C9.79406 4.95058 11.1338 4.04594 12.6251 3.41445C14.1684 2.76088 15.8083 2.42942 17.5 2.42942C19.1917 2.42942 20.8317 2.76088 22.375 3.41445C23.8663 4.04594 25.206 4.95029 26.3566 6.10261C27.5072 7.25463 28.4108 8.59602 29.0415 10.0891C29.6943 11.6343 30.0253 13.2763 30.0253 14.9701C30.0253 16.6639 29.6943 18.3059 29.0415 19.8511C28.4108 21.3442 27.5075 22.6856 26.3566 23.8376Z" stroke="#0070BA"/>
<ellipse cx="17.5" cy="30.4701" rx="17.5" ry="1.5299" fill="#E0E0E0"/>
<path d="M23.1307 13.2665L16.3772 8.50777C16.0026 8.24368 15.5895 8.12451 15.1867 8.12451C14.1065 8.12451 13.0986 8.98245 13.0986 10.212V19.7283C13.0986 20.9582 14.1065 21.8158 15.1867 21.8158C15.5895 21.8158 16.0026 21.6964 16.3772 21.4326L23.1307 16.6739C24.3085 15.8442 24.3085 14.0964 23.1307 13.2665ZM22.3089 15.5048L15.5553 20.2635C15.4397 20.3451 15.3156 20.3864 15.1864 20.3864C14.9122 20.3864 14.526 20.1823 14.526 19.7283V10.212C14.526 9.75801 14.9122 9.55393 15.1864 9.55393C15.3153 9.55393 15.4394 9.59526 15.5551 9.67678L22.3089 14.4358C22.55 14.6056 22.5862 14.8436 22.5862 14.9704C22.5862 15.0973 22.5503 15.3347 22.3089 15.5048Z" fill="#0070BA"/>
<path d="M22.3089 15.5048L15.5553 20.2635C15.4397 20.3451 15.3156 20.3864 15.1864 20.3864C14.9122 20.3864 14.526 20.1823 14.526 19.7283V10.212C14.526 9.75801 14.9122 9.55393 15.1864 9.55393C15.3153 9.55393 15.4394 9.59526 15.5551 9.67678L22.3089 14.4358C22.55 14.6056 22.5862 14.8436 22.5862 14.9704C22.5862 15.0973 22.5503 15.3347 22.3089 15.5048Z" fill="#D9357F"/>
</svg>
